<svg version="1.1" id="Layer_1" xmlns="http://www.w3.org/2000/svg" xmlns:xlink="http://www.w3.org/1999/xlink" x="0px" y="0px"
	 width="100%" viewBox="0 0 605 175" enable-background="new 0 0 605 175" xml:space="preserve">
<path fill="#000000" opacity="1.000000" stroke="none" 
	d="
M576.000000,176.000000 
	C384.000000,176.000000 192.500000,176.000000 1.000000,176.000000 
	C1.000000,117.666664 1.000000,59.333332 1.000000,1.000000 
	C202.666672,1.000000 404.333344,1.000000 606.000000,1.000000 
	C606.000000,59.333332 606.000000,117.666664 606.000000,176.000000 
	C596.166687,176.000000 586.333313,176.000000 576.000000,176.000000 
M220.749756,122.976265 
	C228.235626,126.891205 236.382553,126.455383 244.312088,125.826225 
	C249.636261,125.403770 255.001099,123.780579 260.032990,121.866966 
	C265.132080,119.927803 268.117645,116.178421 267.105865,109.984558 
	C266.522522,106.413391 267.006378,102.668930 266.998230,99.002495 
	C266.989868,95.241501 265.077026,93.087494 261.345001,93.036148 
	C253.013718,92.921509 244.678848,92.927757 236.347321,93.033218 
	C232.544815,93.081352 229.978775,95.289711 230.135971,99.030136 
	C230.289597,102.685799 233.035477,104.109276 236.699631,104.035858 
	C243.115051,103.907310 249.534927,103.999992 255.565796,103.999992 
	C257.063934,109.247864 255.589111,113.004036 250.869583,113.479958 
	C243.659058,114.207092 236.197113,114.763847 229.126526,113.625351 
	C225.304550,113.009956 220.952255,109.430550 218.779510,105.970055 
	C211.421326,94.250641 218.265594,78.528137 235.480667,77.955322 
	C242.944229,77.706993 250.068024,78.389763 256.734283,82.158997 
	C259.184509,83.544380 262.145020,84.378609 263.958282,81.025154 
	C265.770996,77.672729 265.690125,74.711540 261.943054,72.397911 
	C249.934311,64.983131 237.243469,65.657013 224.303238,68.965347 
	C212.438034,71.998833 205.934387,82.175896 205.048416,91.472137 
	C203.779800,104.783379 206.993256,116.114174 220.749756,122.976265 
M386.985474,108.477333 
	C392.637390,113.800591 398.104187,119.346138 404.059174,124.305496 
	C405.746277,125.710526 409.008881,126.097061 411.256836,125.608009 
	C412.486389,125.340515 413.858398,122.275406 413.881592,120.455505 
	C414.085236,104.467804 414.014954,88.476402 413.988892,72.486145 
	C413.982056,68.305290 411.511902,66.922173 407.661255,66.971878 
	C403.901459,67.020416 402.940491,69.101883 402.969849,72.435852 
	C403.055023,82.095901 403.016754,91.757248 402.981232,101.417923 
	C402.976105,102.806732 402.718719,104.194618 402.476227,106.588104 
	C400.152374,104.873573 398.525604,103.907280 397.178589,102.642929 
	C385.127502,91.331314 373.236145,79.845070 360.978760,68.763031 
	C359.325867,67.268608 355.796234,67.125916 353.352692,67.565117 
	C352.286255,67.756798 351.122375,70.988457 351.101440,72.851875 
	C350.924042,88.673615 351.064728,104.498642 350.954315,120.321602 
	C350.926849,124.258797 352.293335,126.069778 356.419464,126.071800 
	C360.426971,126.073761 362.098694,124.536377 362.044678,120.482368 
	C361.909241,110.323677 361.986481,100.161919 362.021088,90.001534 
	C362.024506,88.989616 362.320953,87.978691 362.602325,86.205193 
	C370.960510,93.830772 378.716492,100.906898 386.985474,108.477333 
M55.545368,78.033203 
	C56.183449,79.676743 56.729511,81.363319 57.474575,82.956833 
	C62.232059,93.131882 67.373138,103.144318 71.703133,113.496712 
	C74.690285,120.638557 79.537491,124.884773 86.958527,125.935127 
	C96.364754,127.266457 103.770630,123.865456 107.947342,115.085724 
	C113.936562,102.495995 119.586990,89.745514 125.462761,77.101166 
	C127.514641,72.685638 127.138618,68.322906 124.346947,67.130333 
	C120.807159,65.618172 117.124641,67.404060 115.029297,71.889160 
	C109.328873,84.090996 103.605766,96.284554 98.126526,108.586006 
	C96.457359,112.333443 94.467743,115.015984 90.012215,115.013817 
	C85.323608,115.011543 83.300720,111.593391 81.711304,108.154877 
	C75.997948,95.794670 70.687393,83.245659 64.806458,70.968307 
	C63.912659,69.102348 60.836288,67.361565 58.713249,67.292603 
	C56.979702,67.236298 54.312195,69.440430 53.631905,71.237770 
	C53.007763,72.886772 54.486610,75.331741 55.545368,78.033203 
M480.000092,121.352676 
	C481.315521,122.901291 482.359436,125.277176 484.005798,125.817535 
	C486.969421,126.790260 489.567841,125.484016 490.998108,122.291603 
	C496.628113,109.725143 502.297882,97.175781 508.071838,84.675018 
	C509.684723,81.183067 512.022400,78.115326 516.352600,78.044891 
	C520.946106,77.970184 523.262451,81.199623 524.969666,84.867714 
	C530.914917,97.641495 536.926086,110.388298 542.591248,123.286285 
	C544.129944,126.789330 546.817261,126.383942 549.073792,125.799576 
	C550.629089,125.396812 552.407349,123.288506 552.797974,121.637619 
	C553.236633,119.784363 552.603027,117.420021 551.779968,115.569778 
	C548.069153,107.227325 544.374146,98.860161 540.189209,90.751793 
	C536.751038,84.090332 534.711060,76.786758 528.970276,71.158340 
	C523.014893,65.319496 506.056854,64.895470 501.071411,74.375420 
	C494.978912,85.960388 489.579193,97.913734 484.032379,109.779068 
	C482.420013,113.228127 481.329651,116.921204 480.000092,121.352676 
M422.002655,71.625343 
	C422.225586,76.009071 425.160492,77.763367 428.921265,77.926086 
	C435.181641,78.196976 441.462219,77.999931 447.949860,77.999931 
	C447.949860,93.465729 447.949860,108.419365 447.949860,123.708946 
	C448.823456,123.851295 449.607178,123.882767 450.328339,124.111473 
	C457.098602,126.258560 458.999664,124.982101 458.999878,118.240990 
	C459.000305,104.958359 459.000000,91.675720 459.000000,77.999992 
	C465.674927,77.999992 471.961792,78.021553 478.248413,77.992470 
	C482.498993,77.972809 484.808868,75.196396 483.939026,71.064575 
	C483.652588,69.704063 482.984650,68.423882 482.451111,67.000076 
	C463.867462,67.000076 445.383118,66.904549 426.903748,67.164871 
	C425.263519,67.187973 423.655945,69.528328 422.002655,71.625343 
M153.502045,126.000000 
	C165.479965,126.000000 177.458206,125.950180 189.435623,126.028656 
	C193.312790,126.054062 196.758728,125.750427 196.988144,120.758118 
	C197.160858,116.999870 194.579727,115.007858 189.613342,115.002617 
	C180.796265,114.993309 171.979187,114.999977 163.162109,115.000015 
	C155.343185,115.000046 147.523514,114.935432 139.705688,115.028297 
	C135.955307,115.072853 134.118790,117.199142 133.985199,120.941696 
	C133.845032,124.869583 135.893646,126.144928 139.528229,126.031670 
	C143.849396,125.897018 148.177948,125.999992 153.502045,126.000000 
M134.945709,75.408386 
	C136.930450,76.272263 138.906158,77.860786 140.901337,77.885620 
	C157.210739,78.088646 173.524155,77.937599 189.835373,78.044220 
	C193.873520,78.070618 196.768738,76.822411 196.929520,72.509979 
	C197.111725,67.623489 193.703308,66.947662 189.701019,66.967247 
	C173.555954,67.046257 157.410248,66.999016 141.264786,67.000481 
	C134.636124,67.001076 133.680664,68.084206 134.945709,75.408386 
M337.103821,76.992126 
	C337.877380,74.955894 339.563232,72.707779 339.154144,70.946190 
	C338.784515,69.354546 336.142120,67.195442 334.472748,67.169556 
	C316.848480,66.896248 299.216370,66.887711 281.593262,67.195747 
	C280.037720,67.222939 277.520172,69.807297 277.193665,71.533806 
	C276.288391,76.320938 278.033417,77.960434 283.185028,77.978203 
	C299.981812,78.036156 316.778961,78.012207 333.575806,77.965073 
	C334.477325,77.962547 335.377472,77.459778 337.103821,76.992126 
M183.439301,102.000000 
	C186.097321,101.997879 188.794617,102.281425 191.403564,101.922554 
	C194.795212,101.456009 197.137253,99.421539 196.938095,95.736580 
	C196.763474,92.505417 194.699234,90.987160 191.443130,90.990891 
	C173.833740,91.011055 156.222351,90.887917 138.618256,91.194237 
	C137.054672,91.221451 134.571655,93.765991 134.195724,95.504631 
	C133.335403,99.483650 136.126389,101.980461 140.591827,101.989555 
	C154.546417,102.017967 168.501083,101.999992 183.439301,102.000000 
M319.496887,115.000000 
	C307.203491,115.000137 294.910004,114.970497 282.616791,115.017731 
	C278.699036,115.032791 276.682770,116.720032 276.912262,121.067001 
	C277.123383,125.066261 279.099518,126.049042 282.636688,126.033470 
	C299.581268,125.958855 316.527679,125.887299 333.470367,126.082245 
	C337.511871,126.128754 339.586426,123.860191 339.788971,120.786674 
	C340.031097,117.112648 337.294922,115.033066 333.452667,115.007088 
	C329.133545,114.977875 324.814117,115.000130 319.496887,115.000000 
M279.256836,91.223824 
	C276.426056,93.401932 275.959290,96.475464 277.781616,99.055534 
	C278.894531,100.631226 281.624146,101.847885 283.645905,101.875175 
	C300.088196,102.097176 316.534851,101.977432 332.980042,102.016922 
	C336.760132,102.025993 339.313507,100.351768 339.913910,96.661400 
	C340.425812,93.514908 337.115387,91.005898 332.948761,91.004539 
	C315.340729,90.998779 297.732697,91.009941 279.256836,91.223824 
M511.071564,98.383598 
	C505.743073,101.124725 505.828735,109.449677 509.011566,113.116333 
	C512.415588,117.037865 519.547668,117.175934 523.461121,113.826454 
	C526.156555,111.519455 526.970459,104.677650 525.100342,101.651573 
	C522.204956,96.966484 518.299133,95.855423 511.071564,98.383598 
z"/>
<path fill="#FFFFFF" opacity="1.000000" stroke="none" 
	d="
M220.409714,122.782173 
	C206.993256,116.114174 203.779800,104.783379 205.048416,91.472137 
	C205.934387,82.175896 212.438034,71.998833 224.303238,68.965347 
	C237.243469,65.657013 249.934311,64.983131 261.943054,72.397911 
	C265.690125,74.711540 265.770996,77.672729 263.958282,81.025154 
	C262.145020,84.378609 259.184509,83.544380 256.734283,82.158997 
	C250.068024,78.389763 242.944229,77.706993 235.480667,77.955322 
	C218.265594,78.528137 211.421326,94.250641 218.779510,105.970055 
	C220.952255,109.430550 225.304550,113.009956 229.126526,113.625351 
	C236.197113,114.763847 243.659058,114.207092 250.869583,113.479958 
	C255.589111,113.004036 257.063934,109.247864 255.565796,103.999992 
	C249.534927,103.999992 243.115051,103.907310 236.699631,104.035858 
	C233.035477,104.109276 230.289597,102.685799 230.135971,99.030136 
	C229.978775,95.289711 232.544815,93.081352 236.347321,93.033218 
	C244.678848,92.927757 253.013718,92.921509 261.345001,93.036148 
	C265.077026,93.087494 266.989868,95.241501 266.998230,99.002495 
	C267.006378,102.668930 266.522522,106.413391 267.105865,109.984558 
	C268.117645,116.178421 265.132080,119.927803 260.032990,121.866966 
	C255.001099,123.780579 249.636261,125.403770 244.312088,125.826225 
	C236.382553,126.455383 228.235626,126.891205 220.409714,122.782173 
z"/>
<path fill="#FFFFFF" opacity="1.000000" stroke="none" 
	d="
M386.728943,108.230179 
	C378.716492,100.906898 370.960510,93.830772 362.602325,86.205193 
	C362.320953,87.978691 362.024506,88.989616 362.021088,90.001534 
	C361.986481,100.161919 361.909241,110.323677 362.044678,120.482368 
	C362.098694,124.536377 360.426971,126.073761 356.419464,126.071800 
	C352.293335,126.069778 350.926849,124.258797 350.954315,120.321602 
	C351.064728,104.498642 350.924042,88.673615 351.101440,72.851875 
	C351.122375,70.988457 352.286255,67.756798 353.352692,67.565117 
	C355.796234,67.125916 359.325867,67.268608 360.978760,68.763031 
	C373.236145,79.845070 385.127502,91.331314 397.178589,102.642929 
	C398.525604,103.907280 400.152374,104.873573 402.476227,106.588104 
	C402.718719,104.194618 402.976105,102.806732 402.981232,101.417923 
	C403.016754,91.757248 403.055023,82.095901 402.969849,72.435852 
	C402.940491,69.101883 403.901459,67.020416 407.661255,66.971878 
	C411.511902,66.922173 413.982056,68.305290 413.988892,72.486145 
	C414.014954,88.476402 414.085236,104.467804 413.881592,120.455505 
	C413.858398,122.275406 412.486389,125.340515 411.256836,125.608009 
	C409.008881,126.097061 405.746277,125.710526 404.059174,124.305496 
	C398.104187,119.346138 392.637390,113.800591 386.728943,108.230179 
z"/>
<path fill="#FFFFFF" opacity="1.000000" stroke="none" 
	d="
M55.292130,77.729607 
	C54.486610,75.331741 53.007763,72.886772 53.631905,71.237770 
	C54.312195,69.440430 56.979702,67.236298 58.713249,67.292603 
	C60.836288,67.361565 63.912659,69.102348 64.806458,70.968307 
	C70.687393,83.245659 75.997948,95.794670 81.711304,108.154877 
	C83.300720,111.593391 85.323608,115.011543 90.012215,115.013817 
	C94.467743,115.015984 96.457359,112.333443 98.126526,108.586006 
	C103.605766,96.284554 109.328873,84.090996 115.029297,71.889160 
	C117.124641,67.404060 120.807159,65.618172 124.346947,67.130333 
	C127.138618,68.322906 127.514641,72.685638 125.462761,77.101166 
	C119.586990,89.745514 113.936562,102.495995 107.947342,115.085724 
	C103.770630,123.865456 96.364754,127.266457 86.958527,125.935127 
	C79.537491,124.884773 74.690285,120.638557 71.703133,113.496712 
	C67.373138,103.144318 62.232059,93.131882 57.474575,82.956833 
	C56.729511,81.363319 56.183449,79.676743 55.292130,77.729607 
z"/>
<path fill="#FFFFFF" opacity="1.000000" stroke="none" 
	d="
M480.000061,120.927551 
	C481.329651,116.921204 482.420013,113.228127 484.032379,109.779068 
	C489.579193,97.913734 494.978912,85.960388 501.071411,74.375420 
	C506.056854,64.895470 523.014893,65.319496 528.970276,71.158340 
	C534.711060,76.786758 536.751038,84.090332 540.189209,90.751793 
	C544.374146,98.860161 548.069153,107.227325 551.779968,115.569778 
	C552.603027,117.420021 553.236633,119.784363 552.797974,121.637619 
	C552.407349,123.288506 550.629089,125.396812 549.073792,125.799576 
	C546.817261,126.383942 544.129944,126.789330 542.591248,123.286285 
	C536.926086,110.388298 530.914917,97.641495 524.969666,84.867714 
	C523.262451,81.199623 520.946106,77.970184 516.352600,78.044891 
	C512.022400,78.115326 509.684723,81.183067 508.071838,84.675018 
	C502.297882,97.175781 496.628113,109.725143 490.998108,122.291603 
	C489.567841,125.484016 486.969421,126.790260 484.005798,125.817535 
	C482.359436,125.277176 481.315521,122.901291 480.000061,120.927551 
z"/>
<path fill="#FFFFFF" opacity="1.000000" stroke="none" 
	d="
M422.017944,71.208893 
	C423.655945,69.528328 425.263519,67.187973 426.903748,67.164871 
	C445.383118,66.904549 463.867462,67.000076 482.451111,67.000076 
	C482.984650,68.423882 483.652588,69.704063 483.939026,71.064575 
	C484.808868,75.196396 482.498993,77.972809 478.248413,77.992470 
	C471.961792,78.021553 465.674927,77.999992 459.000000,77.999992 
	C459.000000,91.675720 459.000305,104.958359 458.999878,118.240990 
	C458.999664,124.982101 457.098602,126.258560 450.328339,124.111473 
	C449.607178,123.882767 448.823456,123.851295 447.949860,123.708946 
	C447.949860,108.419365 447.949860,93.465729 447.949860,77.999931 
	C441.462219,77.999931 435.181641,78.196976 428.921265,77.926086 
	C425.160492,77.763367 422.225586,76.009071 422.017944,71.208893 
z"/>
<path fill="#FFFFFF" opacity="1.000000" stroke="none" 
	d="
M153.002686,126.000000 
	C148.177948,125.999992 143.849396,125.897018 139.528229,126.031670 
	C135.893646,126.144928 133.845032,124.869583 133.985199,120.941696 
	C134.118790,117.199142 135.955307,115.072853 139.705688,115.028297 
	C147.523514,114.935432 155.343185,115.000046 163.162109,115.000015 
	C171.979187,114.999977 180.796265,114.993309 189.613342,115.002617 
	C194.579727,115.007858 197.160858,116.999870 196.988144,120.758118 
	C196.758728,125.750427 193.312790,126.054062 189.435623,126.028656 
	C177.458206,125.950180 165.479965,126.000000 153.002686,126.000000 
z"/>
<path fill="#FFFFFF" opacity="1.000000" stroke="none" 
	d="
M134.633789,75.130814 
	C133.680664,68.084206 134.636124,67.001076 141.264786,67.000481 
	C157.410248,66.999016 173.555954,67.046257 189.701019,66.967247 
	C193.703308,66.947662 197.111725,67.623489 196.929520,72.509979 
	C196.768738,76.822411 193.873520,78.070618 189.835373,78.044220 
	C173.524155,77.937599 157.210739,78.088646 140.901337,77.885620 
	C138.906158,77.860786 136.930450,76.272263 134.633789,75.130814 
z"/>
<path fill="#FFFFFF" opacity="1.000000" stroke="none" 
	d="
M336.691040,77.091003 
	C335.377472,77.459778 334.477325,77.962547 333.575806,77.965073 
	C316.778961,78.012207 299.981812,78.036156 283.185028,77.978203 
	C278.033417,77.960434 276.288391,76.320938 277.193665,71.533806 
	C277.520172,69.807297 280.037720,67.222939 281.593262,67.195747 
	C299.216370,66.887711 316.848480,66.896248 334.472748,67.169556 
	C336.142120,67.195442 338.784515,69.354546 339.154144,70.946190 
	C339.563232,72.707779 337.877380,74.955894 336.691040,77.091003 
z"/>
<path fill="#FFFFFF" opacity="1.000000" stroke="none" 
	d="
M182.947510,102.000000 
	C168.501083,101.999992 154.546417,102.017967 140.591827,101.989555 
	C136.126389,101.980461 133.335403,99.483650 134.195724,95.504631 
	C134.571655,93.765991 137.054672,91.221451 138.618256,91.194237 
	C156.222351,90.887917 173.833740,91.011055 191.443130,90.990891 
	C194.699234,90.987160 196.763474,92.505417 196.938095,95.736580 
	C197.137253,99.421539 194.795212,101.456009 191.403564,101.922554 
	C188.794617,102.281425 186.097321,101.997879 182.947510,102.000000 
z"/>
<path fill="#FFFFFF" opacity="1.000000" stroke="none" 
	d="
M319.995850,115.000000 
	C324.814117,115.000130 329.133545,114.977875 333.452667,115.007088 
	C337.294922,115.033066 340.031097,117.112648 339.788971,120.786674 
	C339.586426,123.860191 337.511871,126.128754 333.470367,126.082245 
	C316.527679,125.887299 299.581268,125.958855 282.636688,126.033470 
	C279.099518,126.049042 277.123383,125.066261 276.912262,121.067001 
	C276.682770,116.720032 278.699036,115.032791 282.616791,115.017731 
	C294.910004,114.970497 307.203491,115.000137 319.995850,115.000000 
z"/>
<path fill="#FFFFFF" opacity="1.000000" stroke="none" 
	d="
M279.690735,91.119370 
	C297.732697,91.009941 315.340729,90.998779 332.948761,91.004539 
	C337.115387,91.005898 340.425812,93.514908 339.913910,96.661400 
	C339.313507,100.351768 336.760132,102.025993 332.980042,102.016922 
	C316.534851,101.977432 300.088196,102.097176 283.645905,101.875175 
	C281.624146,101.847885 278.894531,100.631226 277.781616,99.055534 
	C275.959290,96.475464 276.426056,93.401932 279.690735,91.119370 
z"/>
<path fill="#FFFFFF" opacity="1.000000" stroke="none" 
	d="
M511.394897,98.114227 
	C518.299133,95.855423 522.204956,96.966484 525.100342,101.651573 
	C526.970459,104.677650 526.156555,111.519455 523.461121,113.826454 
	C519.547668,117.175934 512.415588,117.037865 509.011566,113.116333 
	C505.828735,109.449677 505.743073,101.124725 511.394897,98.114227 
z"/>
</svg>