<svg version="1.1" id="Layer_1" xmlns="http://www.w3.org/2000/svg" xmlns:xlink="http://www.w3.org/1999/xlink" x="0px" y="0px"
	 width="100%" viewBox="0 0 534 520" enable-background="new 0 0 534 520" xml:space="preserve">
<path fill="#000000" opacity="1.000000" stroke="none" 
	d="
M290.000000,1.000001 
	C371.649597,1.000000 453.299194,1.000000 534.974365,1.000000 
	C534.974365,174.279999 534.974365,347.560028 534.974365,520.920044 
	C357.090576,520.920044 179.181091,520.920044 1.135806,520.920044 
	C1.135806,347.666718 1.135806,174.333389 1.135806,1.000000 
	C81.103027,1.000000 161.086502,1.000000 241.463837,1.385822 
	C241.188873,2.169396 240.552231,2.842367 239.846573,2.924854 
	C219.523605,5.300506 200.200836,11.195220 181.879974,20.128267 
	C153.803452,33.818058 130.394730,53.213444 111.312851,78.062439 
	C86.937431,109.804832 74.368530,145.847168 72.297592,185.412888 
	C71.558418,199.534882 72.921768,213.993378 75.170387,228.002136 
	C81.468094,267.236145 99.317009,301.075592 127.129250,329.203064 
	C137.776337,339.970856 150.103012,349.361023 162.679810,357.879761 
	C190.560104,376.764160 222.103561,385.842743 255.431091,387.679871 
	C269.713837,388.467194 284.311401,386.988892 298.526245,384.905212 
	C338.619904,379.028076 372.751831,360.627258 401.675201,332.624786 
	C414.463013,320.244110 425.274872,306.148773 434.276489,290.656250 
	C450.033325,263.537506 458.471008,234.228027 459.729248,203.102386 
	C460.274384,189.616577 458.892883,175.897446 456.939240,162.495255 
	C451.115051,122.540169 432.669525,88.653564 405.016968,59.662586 
	C393.635925,47.730698 380.610718,37.658920 366.531555,29.024326 
	C345.743073,16.274981 323.271149,8.043806 299.246613,3.911362 
	C296.090851,3.368542 293.078674,1.990959 290.000000,1.000001 
M196.730835,440.064026 
	C183.319519,440.913971 172.932938,448.226685 169.167664,459.469971 
	C165.309784,470.989838 168.412262,483.921814 177.165649,491.418030 
	C187.483551,500.254059 199.870987,500.180725 212.171448,498.161285 
	C217.176926,497.339539 221.957169,494.362640 226.469727,491.731476 
	C228.127502,490.764862 229.428604,488.042511 229.647980,485.988159 
	C230.122986,481.539886 229.913864,477.001740 229.758942,472.508148 
	C229.624161,468.598572 227.454742,466.286255 223.476395,466.235168 
	C215.479538,466.132538 207.479599,466.135406 199.482666,466.234680 
	C195.872925,466.279480 193.129486,468.107300 193.252258,471.881897 
	C193.374496,475.640839 196.056656,477.129730 199.809906,477.051758 
	C206.102203,476.920990 212.399200,477.015961 218.652405,477.015961 
	C219.317398,484.885712 219.215286,485.803558 212.267944,486.989105 
	C206.143127,488.034241 199.612289,488.438019 193.512405,487.495789 
	C183.644165,485.971558 178.356766,478.883972 178.410812,469.411591 
	C178.464935,459.924408 183.816940,452.932007 193.683090,451.403046 
	C202.175873,450.086884 210.943527,449.438202 218.774460,454.769501 
	C221.570129,456.672791 224.546066,456.694153 226.633301,453.606689 
	C228.894958,450.261200 227.456223,447.649384 224.450974,445.633789 
	C223.214508,444.804504 221.936844,444.016357 220.608154,443.348206 
	C213.339447,439.693115 205.516586,439.782257 196.730835,440.064026 
M376.397858,463.501038 
	C376.394318,457.669800 376.460266,451.837402 376.360596,446.007812 
	C376.302979,442.638794 374.919067,440.099060 371.112762,440.028015 
	C367.324890,439.957306 365.850433,442.373779 365.640320,445.782104 
	C365.527740,447.608154 365.603363,449.446136 365.602997,451.278717 
	C365.601105,460.828979 365.602112,470.379272 365.602112,481.037567 
	C363.497833,479.144836 362.288422,478.090088 361.115173,476.996613 
	C348.698975,465.424469 336.361206,453.765930 323.783325,442.372437 
	C322.236328,440.971100 318.979797,439.930969 317.308441,440.627106 
	C315.674622,441.307648 314.217896,444.391632 314.136566,446.477264 
	C313.792664,455.294128 313.989777,464.132111 313.990875,472.962372 
	C313.991730,479.793304 313.659973,486.651306 314.208282,493.438141 
	C314.366028,495.390656 316.729706,498.072693 318.673279,498.768524 
	C321.891693,499.920654 323.879608,497.374084 324.614349,494.322601 
	C324.957275,492.898499 324.782288,491.341553 324.783844,489.844757 
	C324.794312,479.606873 324.789337,469.368958 324.789337,458.124786 
	C326.687958,459.764221 327.797058,460.656860 328.833679,461.626923 
	C341.229645,473.226990 353.534271,484.927307 366.099091,496.341309 
	C367.777191,497.865723 371.254242,499.121674 372.995819,498.380768 
	C374.723145,497.645996 376.158600,494.264221 376.248413,491.985321 
	C376.608887,482.836029 376.397705,473.664246 376.397858,463.501038 
M55.118332,498.940430 
	C62.436962,497.809967 67.572739,493.789917 70.634315,487.105774 
	C76.351761,474.623260 82.017532,462.117035 87.733498,449.633850 
	C89.296883,446.219513 90.226395,442.862640 86.234825,440.515045 
	C83.039688,438.635956 80.137177,440.313812 77.942574,445.068390 
	C72.396378,457.084198 66.826393,469.089417 61.367519,481.144897 
	C59.628784,484.984711 57.558922,488.137970 52.776054,488.211609 
	C47.727200,488.289276 45.621246,484.950623 43.809647,480.958252 
	C38.341461,468.907623 32.661900,456.952332 27.257456,444.873688 
	C25.603338,441.176819 23.303869,438.660187 19.301510,440.444946 
	C15.266078,442.244537 15.632126,445.719055 17.319733,449.347168 
	C23.037302,461.639038 28.598415,474.003540 34.265835,486.318878 
	C38.183037,494.830933 44.590725,499.494720 55.118332,498.940430 
M510.720551,481.768951 
	C506.059326,471.706238 501.539185,461.574890 496.689026,451.604065 
	C493.246979,444.527985 487.594025,440.209473 479.449493,440.016815 
	C471.128204,439.819916 464.911987,443.727600 461.367859,451.036072 
	C455.080383,464.001648 449.239960,477.184875 443.298035,490.315735 
	C442.716400,491.601074 442.046234,493.580078 442.613678,494.495209 
	C443.714142,496.270203 445.669891,498.686859 447.263855,498.681427 
	C449.172974,498.674896 451.967834,496.847046 452.835266,495.059021 
	C458.834930,482.692383 464.469299,470.147308 470.137268,457.621674 
	C471.902374,453.720947 474.231934,450.784393 478.962372,450.800629 
	C483.687378,450.816833 485.970062,453.759583 487.725891,457.673553 
	C493.284149,470.064026 499.009399,482.379517 504.583557,494.762970 
	C506.098572,498.128632 508.419220,500.095032 511.997070,498.575623 
	C515.825012,496.950043 516.003723,493.650909 514.478577,490.172729 
	C513.346863,487.591980 512.119690,485.053131 510.720551,481.768951 
M421.795593,482.476379 
	C421.795593,472.034454 421.795593,461.592499 421.795593,450.795471 
	C428.256683,450.795471 434.219757,450.752411 440.181824,450.810608 
	C444.153198,450.849396 447.421906,449.651733 447.357727,445.165619 
	C447.297943,440.988342 444.287750,439.911255 440.412872,439.938782 
	C424.416779,440.052246 408.419159,440.035889 392.422729,439.951080 
	C388.470276,439.930115 385.127869,440.773407 385.156525,445.363647 
	C385.185120,449.948303 388.676483,450.816528 392.515808,450.801727 
	C398.598145,450.778259 404.680603,450.795502 410.986481,450.795502 
	C410.986481,465.063690 411.024170,478.707184 410.961121,492.350189 
	C410.944458,495.958221 411.899994,498.756653 415.987335,498.950500 
	C420.376617,499.158691 421.630280,496.153931 421.770996,492.462067 
	C421.885193,489.466980 421.795074,486.464142 421.795593,482.476379 
M249.660156,439.985168 
	C248.995193,439.985168 248.328400,440.017609 247.665588,439.979828 
	C243.710953,439.754456 240.103027,440.220245 239.697968,445.201141 
	C239.400955,448.853302 242.390121,450.791260 247.940018,450.794281 
	C263.400299,450.802673 278.860626,450.814575 294.320862,450.787628 
	C299.630646,450.778381 302.242126,448.882935 301.970306,445.147614 
	C301.629395,440.463013 298.330780,439.938385 294.504822,439.956757 
	C279.876068,440.027069 265.246765,439.985168 249.660156,439.985168 
M96.713547,444.680603 
	C96.669556,448.877502 99.038429,450.758301 102.940758,450.771698 
	C119.592468,450.828827 136.244751,450.843353 152.896194,450.756317 
	C156.469025,450.737610 159.121124,449.064758 158.946335,445.052460 
	C158.786453,441.382141 156.382660,439.972565 152.890701,439.976898 
	C136.238815,439.997620 119.584328,439.849792 102.938286,440.162292 
	C100.903831,440.200500 98.914581,442.646759 96.713547,444.680603 
M121.500092,499.015076 
	C131.807114,499.014923 142.114395,498.974121 152.421036,499.036652 
	C156.041870,499.058594 158.796753,497.940521 158.939087,493.939178 
	C159.092438,489.627991 156.142563,488.232178 152.398407,488.222290 
	C135.940506,488.178833 119.482430,488.190735 103.024460,488.212646 
	C99.367088,488.217529 96.729927,489.882172 96.736206,493.723022 
	C96.742508,497.576324 99.253487,499.121582 103.045372,499.045624 
	C108.861519,498.929108 114.681725,499.015015 121.500092,499.015076 
M300.506195,489.993500 
	C298.834229,489.396942 297.166260,488.295319 295.489716,488.282104 
	C279.008972,488.152161 262.526855,488.192017 246.045135,488.211578 
	C242.383621,488.215942 239.734344,489.868011 239.736008,493.716187 
	C239.737686,497.576294 242.255951,499.065369 246.051575,499.047729 
	C262.532959,498.971161 279.015076,499.057800 295.496552,498.990997 
	C301.196075,498.967865 302.946564,496.176697 300.506195,489.993500 
M126.500000,463.985291 
	C118.855202,463.985321 111.208443,464.088165 103.566437,463.942200 
	C99.708794,463.868500 96.746101,464.942169 96.753914,469.193817 
	C96.761505,473.326172 99.730354,474.787689 103.505173,474.790802 
	C119.791916,474.804291 136.078766,474.823486 152.365387,474.775299 
	C156.107834,474.764221 159.030716,473.308136 158.937500,469.046661 
	C158.848648,464.985016 156.017624,463.943970 152.428589,463.967926 
	C144.119400,464.023407 135.809570,463.985382 126.500000,463.985291 
M294.194946,463.985291 
	C278.397400,463.985291 262.599548,464.040283 246.802582,463.944885 
	C243.061066,463.922333 239.877350,464.626251 239.772202,468.966400 
	C239.663971,473.434631 242.815567,474.796997 246.779129,474.796906 
	C262.909241,474.796570 279.039368,474.810181 295.169464,474.786194 
	C298.894928,474.780640 301.918152,473.489258 301.934875,469.235046 
	C301.952118,464.846039 298.869263,463.821350 294.194946,463.985291 
M470.106049,483.184906 
	C470.450378,483.749512 470.743225,484.354187 471.147064,484.872437 
	C474.549072,489.238861 479.574097,490.369568 483.867126,487.758331 
	C488.187683,485.130341 489.838196,479.637543 487.622375,475.260986 
	C485.449738,470.969727 480.230316,468.819458 475.798279,470.389771 
	C471.068726,472.065460 468.644897,477.084564 470.106049,483.184906 
z"/>
<path fill="#1E1E1F" opacity="1.000000" stroke="none" 
	d="
M289.531342,1.000001 
	C293.078674,1.990959 296.090851,3.368542 299.246613,3.911362 
	C323.271149,8.043806 345.743073,16.274981 366.531555,29.024326 
	C380.610718,37.658920 393.635925,47.730698 405.016968,59.662586 
	C432.669525,88.653564 451.115051,122.540169 456.939240,162.495255 
	C458.892883,175.897446 460.274384,189.616577 459.729248,203.102386 
	C458.471008,234.228027 450.033325,263.537506 434.276489,290.656250 
	C425.274872,306.148773 414.463013,320.244110 401.675201,332.624786 
	C372.751831,360.627258 338.619904,379.028076 298.526245,384.905212 
	C284.311401,386.988892 269.713837,388.467194 255.431091,387.679871 
	C222.103561,385.842743 190.560104,376.764160 162.679810,357.879761 
	C150.103012,349.361023 137.776337,339.970856 127.129250,329.203064 
	C99.317009,301.075592 81.468094,267.236145 75.170387,228.002136 
	C72.921768,213.993378 71.558418,199.534882 72.297592,185.412888 
	C74.368530,145.847168 86.937431,109.804832 111.312851,78.062439 
	C130.394730,53.213444 153.803452,33.818058 181.879974,20.128267 
	C200.200836,11.195220 219.523605,5.300506 239.846573,2.924854 
	C240.552231,2.842367 241.188873,2.169396 241.928833,1.385822 
	C257.687561,1.000000 273.375122,1.000000 289.531342,1.000001 
M193.720566,194.253448 
	C169.238541,206.198105 144.988937,218.660263 120.151772,229.814102 
	C111.139992,233.861099 107.460045,238.641983 108.826637,248.323807 
	C109.323532,251.844070 110.028282,253.860825 113.268333,255.489838 
	C162.857101,280.421600 212.402573,305.439789 261.893188,330.565765 
	C265.183014,332.235992 267.720490,331.713074 270.713898,330.196381 
	C317.407501,306.537384 363.967224,282.602081 410.991760,259.618378 
	C420.466125,254.987717 425.026123,249.909164 422.969574,239.584717 
	C422.937653,239.424515 423.028076,239.216690 422.956299,239.091248 
	C422.004089,237.427658 421.440674,234.950363 420.006409,234.241318 
	C392.600494,220.692520 365.091583,207.352020 338.051056,193.386490 
	C362.938324,180.743256 387.607452,167.638168 412.837494,155.720551 
	C421.080322,151.826981 424.063446,147.325790 423.194397,138.551437 
	C422.765625,134.222717 421.776611,131.981079 417.760620,130.041458 
	C368.695648,106.344215 319.718292,82.465157 270.775024,58.517136 
	C267.262634,56.798523 264.433624,56.953480 260.976654,58.646179 
	C214.426697,81.439301 167.983917,104.465950 121.076897,126.503082 
	C111.464790,131.018906 107.207619,136.001923 108.892731,146.375580 
	C109.331726,149.078033 109.749062,150.811722 112.363129,152.101059 
	C124.876556,158.273026 137.317642,164.593323 149.740417,170.946976 
	C164.662384,178.578857 179.539856,186.297745 193.720566,194.253448 
z"/>
<path fill="#F6F6F6" opacity="1.000000" stroke="none" 
	d="
M197.203201,440.049347 
	C205.516586,439.782257 213.339447,439.693115 220.608154,443.348206 
	C221.936844,444.016357 223.214508,444.804504 224.450974,445.633789 
	C227.456223,447.649384 228.894958,450.261200 226.633301,453.606689 
	C224.546066,456.694153 221.570129,456.672791 218.774460,454.769501 
	C210.943527,449.438202 202.175873,450.086884 193.683090,451.403046 
	C183.816940,452.932007 178.464935,459.924408 178.410812,469.411591 
	C178.356766,478.883972 183.644165,485.971558 193.512405,487.495789 
	C199.612289,488.438019 206.143127,488.034241 212.267944,486.989105 
	C219.215286,485.803558 219.317398,484.885712 218.652405,477.015961 
	C212.399200,477.015961 206.102203,476.920990 199.809906,477.051758 
	C196.056656,477.129730 193.374496,475.640839 193.252258,471.881897 
	C193.129486,468.107300 195.872925,466.279480 199.482666,466.234680 
	C207.479599,466.135406 215.479538,466.132538 223.476395,466.235168 
	C227.454742,466.286255 229.624161,468.598572 229.758942,472.508148 
	C229.913864,477.001740 230.122986,481.539886 229.647980,485.988159 
	C229.428604,488.042511 228.127502,490.764862 226.469727,491.731476 
	C221.957169,494.362640 217.176926,497.339539 212.171448,498.161285 
	C199.870987,500.180725 187.483551,500.254059 177.165649,491.418030 
	C168.412262,483.921814 165.309784,470.989838 169.167664,459.469971 
	C172.932938,448.226685 183.319519,440.913971 197.203201,440.049347 
z"/>
<path fill="#FAFAFA" opacity="1.000000" stroke="none" 
	d="
M376.397827,464.000916 
	C376.397705,473.664246 376.608887,482.836029 376.248413,491.985321 
	C376.158600,494.264221 374.723145,497.645996 372.995819,498.380768 
	C371.254242,499.121674 367.777191,497.865723 366.099091,496.341309 
	C353.534271,484.927307 341.229645,473.226990 328.833679,461.626923 
	C327.797058,460.656860 326.687958,459.764221 324.789337,458.124786 
	C324.789337,469.368958 324.794312,479.606873 324.783844,489.844757 
	C324.782288,491.341553 324.957275,492.898499 324.614349,494.322601 
	C323.879608,497.374084 321.891693,499.920654 318.673279,498.768524 
	C316.729706,498.072693 314.366028,495.390656 314.208282,493.438141 
	C313.659973,486.651306 313.991730,479.793304 313.990875,472.962372 
	C313.989777,464.132111 313.792664,455.294128 314.136566,446.477264 
	C314.217896,444.391632 315.674622,441.307648 317.308441,440.627106 
	C318.979797,439.930969 322.236328,440.971100 323.783325,442.372437 
	C336.361206,453.765930 348.698975,465.424469 361.115173,476.996613 
	C362.288422,478.090088 363.497833,479.144836 365.602112,481.037567 
	C365.602112,470.379272 365.601105,460.828979 365.602997,451.278717 
	C365.603363,449.446136 365.527740,447.608154 365.640320,445.782104 
	C365.850433,442.373779 367.324890,439.957306 371.112762,440.028015 
	C374.919067,440.099060 376.302979,442.638794 376.360596,446.007812 
	C376.460266,451.837402 376.394318,457.669800 376.397827,464.000916 
z"/>
<path fill="#F8F8F8" opacity="1.000000" stroke="none" 
	d="
M54.685341,498.960083 
	C44.590725,499.494720 38.183037,494.830933 34.265835,486.318878 
	C28.598415,474.003540 23.037302,461.639038 17.319733,449.347168 
	C15.632126,445.719055 15.266078,442.244537 19.301510,440.444946 
	C23.303869,438.660187 25.603338,441.176819 27.257456,444.873688 
	C32.661900,456.952332 38.341461,468.907623 43.809647,480.958252 
	C45.621246,484.950623 47.727200,488.289276 52.776054,488.211609 
	C57.558922,488.137970 59.628784,484.984711 61.367519,481.144897 
	C66.826393,469.089417 72.396378,457.084198 77.942574,445.068390 
	C80.137177,440.313812 83.039688,438.635956 86.234825,440.515045 
	C90.226395,442.862640 89.296883,446.219513 87.733498,449.633850 
	C82.017532,462.117035 76.351761,474.623260 70.634315,487.105774 
	C67.572739,493.789917 62.436962,497.809967 54.685341,498.960083 
z"/>
<path fill="#F7F7F7" opacity="1.000000" stroke="none" 
	d="
M510.827820,482.132263 
	C512.119690,485.053131 513.346863,487.591980 514.478577,490.172729 
	C516.003723,493.650909 515.825012,496.950043 511.997070,498.575623 
	C508.419220,500.095032 506.098572,498.128632 504.583557,494.762970 
	C499.009399,482.379517 493.284149,470.064026 487.725891,457.673553 
	C485.970062,453.759583 483.687378,450.816833 478.962372,450.800629 
	C474.231934,450.784393 471.902374,453.720947 470.137268,457.621674 
	C464.469299,470.147308 458.834930,482.692383 452.835266,495.059021 
	C451.967834,496.847046 449.172974,498.674896 447.263855,498.681427 
	C445.669891,498.686859 443.714142,496.270203 442.613678,494.495209 
	C442.046234,493.580078 442.716400,491.601074 443.298035,490.315735 
	C449.239960,477.184875 455.080383,464.001648 461.367859,451.036072 
	C464.911987,443.727600 471.128204,439.819916 479.449493,440.016815 
	C487.594025,440.209473 493.246979,444.527985 496.689026,451.604065 
	C501.539185,461.574890 506.059326,471.706238 510.827820,482.132263 
z"/>
<path fill="#F8F8F8" opacity="1.000000" stroke="none" 
	d="
M421.795593,482.970551 
	C421.795074,486.464142 421.885193,489.466980 421.770996,492.462067 
	C421.630280,496.153931 420.376617,499.158691 415.987335,498.950500 
	C411.899994,498.756653 410.944458,495.958221 410.961121,492.350189 
	C411.024170,478.707184 410.986481,465.063690 410.986481,450.795502 
	C404.680603,450.795502 398.598145,450.778259 392.515808,450.801727 
	C388.676483,450.816528 385.185120,449.948303 385.156525,445.363647 
	C385.127869,440.773407 388.470276,439.930115 392.422729,439.951080 
	C408.419159,440.035889 424.416779,440.052246 440.412872,439.938782 
	C444.287750,439.911255 447.297943,440.988342 447.357727,445.165619 
	C447.421906,449.651733 444.153198,450.849396 440.181824,450.810608 
	C434.219757,450.752411 428.256683,450.795471 421.795593,450.795471 
	C421.795593,461.592499 421.795593,472.034454 421.795593,482.970551 
z"/>
<path fill="#F7F7F7" opacity="1.000000" stroke="none" 
	d="
M250.138916,439.985168 
	C265.246765,439.985168 279.876068,440.027069 294.504822,439.956757 
	C298.330780,439.938385 301.629395,440.463013 301.970306,445.147614 
	C302.242126,448.882935 299.630646,450.778381 294.320862,450.787628 
	C278.860626,450.814575 263.400299,450.802673 247.940018,450.794281 
	C242.390121,450.791260 239.400955,448.853302 239.697968,445.201141 
	C240.103027,440.220245 243.710953,439.754456 247.665588,439.979828 
	C248.328400,440.017609 248.995193,439.985168 250.138916,439.985168 
z"/>
<path fill="#F7F7F7" opacity="1.000000" stroke="none" 
	d="
M96.808968,444.328796 
	C98.914581,442.646759 100.903831,440.200500 102.938286,440.162292 
	C119.584328,439.849792 136.238815,439.997620 152.890701,439.976898 
	C156.382660,439.972565 158.786453,441.382141 158.946335,445.052460 
	C159.121124,449.064758 156.469025,450.737610 152.896194,450.756317 
	C136.244751,450.843353 119.592468,450.828827 102.940758,450.771698 
	C99.038429,450.758301 96.669556,448.877502 96.808968,444.328796 
z"/>
<path fill="#F7F7F7" opacity="1.000000" stroke="none" 
	d="
M121.000153,499.015076 
	C114.681725,499.015015 108.861519,498.929108 103.045372,499.045624 
	C99.253487,499.121582 96.742508,497.576324 96.736206,493.723022 
	C96.729927,489.882172 99.367088,488.217529 103.024460,488.212646 
	C119.482430,488.190735 135.940506,488.178833 152.398407,488.222290 
	C156.142563,488.232178 159.092438,489.627991 158.939087,493.939178 
	C158.796753,497.940521 156.041870,499.058594 152.421036,499.036652 
	C142.114395,498.974121 131.807114,499.014923 121.000153,499.015076 
z"/>
<path fill="#F7F7F7" opacity="1.000000" stroke="none" 
	d="
M300.756592,490.308105 
	C302.946564,496.176697 301.196075,498.967865 295.496552,498.990997 
	C279.015076,499.057800 262.532959,498.971161 246.051575,499.047729 
	C242.255951,499.065369 239.737686,497.576294 239.736008,493.716187 
	C239.734344,489.868011 242.383621,488.215942 246.045135,488.211578 
	C262.526855,488.192017 279.008972,488.152161 295.489716,488.282104 
	C297.166260,488.295319 298.834229,489.396942 300.756592,490.308105 
z"/>
<path fill="#F7F7F7" opacity="1.000000" stroke="none" 
	d="
M127.000000,463.985291 
	C135.809570,463.985382 144.119400,464.023407 152.428589,463.967926 
	C156.017624,463.943970 158.848648,464.985016 158.937500,469.046661 
	C159.030716,473.308136 156.107834,474.764221 152.365387,474.775299 
	C136.078766,474.823486 119.791916,474.804291 103.505173,474.790802 
	C99.730354,474.787689 96.761505,473.326172 96.753914,469.193817 
	C96.746101,464.942169 99.708794,463.868500 103.566437,463.942200 
	C111.208443,464.088165 118.855202,463.985321 127.000000,463.985291 
z"/>
<path fill="#F7F7F7" opacity="1.000000" stroke="none" 
	d="
M294.654724,463.985291 
	C298.869263,463.821350 301.952118,464.846039 301.934875,469.235046 
	C301.918152,473.489258 298.894928,474.780640 295.169464,474.786194 
	C279.039368,474.810181 262.909241,474.796570 246.779129,474.796906 
	C242.815567,474.796997 239.663971,473.434631 239.772202,468.966400 
	C239.877350,464.626251 243.061066,463.922333 246.802582,463.944885 
	C262.599548,464.040283 278.397400,463.985291 294.654724,463.985291 
z"/>
<path fill="#F7F7F7" opacity="1.000000" stroke="none" 
	d="
M470.043213,482.810974 
	C468.644897,477.084564 471.068726,472.065460 475.798279,470.389771 
	C480.230316,468.819458 485.449738,470.969727 487.622375,475.260986 
	C489.838196,479.637543 488.187683,485.130341 483.867126,487.758331 
	C479.574097,490.369568 474.549072,489.238861 471.147064,484.872437 
	C470.743225,484.354187 470.450378,483.749512 470.043213,482.810974 
z"/>
<path fill="#72DAE9" opacity="1.000000" stroke="none" 
	d="
M194.436600,193.978943 
	C179.539856,186.297745 164.662384,178.578857 149.740417,170.946976 
	C137.317642,164.593323 124.876556,158.273026 112.363129,152.101059 
	C109.749062,150.811722 109.331726,149.078033 108.892731,146.375580 
	C107.207619,136.001923 111.464790,131.018906 121.076897,126.503082 
	C167.983917,104.465950 214.426697,81.439301 260.976654,58.646179 
	C264.433624,56.953480 267.262634,56.798523 270.775024,58.517136 
	C319.718292,82.465157 368.695648,106.344215 417.760620,130.041458 
	C421.776611,131.981079 422.765625,134.222717 423.194397,138.551437 
	C424.063446,147.325790 421.080322,151.826981 412.837494,155.720551 
	C387.607452,167.638168 362.938324,180.743256 337.494995,193.717865 
	C331.924133,196.841370 326.909302,199.633530 321.497925,202.419708 
	C311.160431,207.246109 301.227356,212.094666 291.276215,216.905975 
	C282.512848,221.142990 273.729340,225.338379 264.599609,229.337311 
	C258.682281,226.407410 253.120041,223.692337 247.348816,220.659180 
	C236.020752,214.679626 224.912628,208.996399 213.765671,203.390350 
	C212.648270,202.828369 211.295410,202.734528 209.984802,202.105011 
	C204.757385,199.184021 199.597000,196.581482 194.436600,193.978943 
M267.079071,175.737915 
	C254.975998,181.612137 242.872940,187.486359 230.503113,193.490036 
	C231.452530,194.586288 231.698410,195.095459 232.099716,195.300674 
	C242.593094,200.666779 253.078262,206.050613 263.643250,211.272736 
	C264.830719,211.859680 266.765289,212.056351 267.880554,211.494843 
	C279.142120,205.824829 290.305054,199.958908 302.157379,194.006577 
	C307.503662,191.103012 312.849945,188.199448 318.931885,185.186859 
	C320.309875,184.653702 321.744965,184.233566 323.057465,183.570709 
	C348.975311,170.481583 374.880615,157.367630 400.781189,144.244354 
	C402.300049,143.474777 403.757416,142.583755 406.247101,141.185577 
	C393.868439,135.140182 382.647827,129.549576 371.285675,124.263062 
	C369.985809,123.658249 367.699310,124.366135 366.199310,125.120049 
	C342.332001,137.115677 318.505219,149.192245 294.705658,161.321976 
	C290.776459,163.324524 287.020386,165.666794 282.539246,167.826630 
	C277.637085,170.421509 272.734894,173.016388 267.079071,175.737915 
M193.070602,175.469879 
	C198.316040,177.973907 203.669525,180.279556 208.766739,183.055740 
	C211.862747,184.741959 214.330261,184.666870 217.486649,183.066849 
	C249.490814,166.843338 281.583862,150.795288 313.638641,134.671494 
	C326.172943,128.366669 338.673492,121.994766 351.889893,115.298492 
	C350.106964,114.235069 349.058533,113.502022 347.922424,112.949158 
	C338.963715,108.589554 329.912476,104.411476 321.057983,99.850861 
	C317.846893,98.196938 315.364258,98.544533 312.279663,100.101883 
	C269.281647,121.810463 226.222260,143.397446 183.186600,165.031479 
	C181.693085,165.782257 180.290421,166.713730 178.024506,168.042282 
	C183.536942,170.745026 187.976990,172.921997 193.070602,175.469879 
M215.181534,131.746017 
	C242.897736,117.721291 270.613922,103.696571 299.219299,89.221909 
	C288.395203,84.010284 279.037231,79.321869 269.489349,75.058952 
	C267.538727,74.188049 264.487518,74.110680 262.596893,75.022285 
	C218.743668,96.167038 174.978897,117.495209 131.208557,138.811676 
	C129.650131,139.570648 128.202209,140.556549 125.905548,141.904633 
	C137.359436,147.670471 147.939178,153.109909 158.663986,158.246460 
	C159.956528,158.865479 162.239044,158.256271 163.716980,157.521225 
	C180.675217,149.087036 197.566513,140.518219 215.181534,131.746017 
z"/>
<path fill="#7761F8" opacity="1.000000" stroke="none" 
	d="
M321.894501,202.425690 
	C326.909302,199.633530 331.924133,196.841370 337.271484,194.008804 
	C365.091583,207.352020 392.600494,220.692520 420.006409,234.241318 
	C421.440674,234.950363 422.004089,237.427658 422.956299,239.091248 
	C423.028076,239.216690 422.937653,239.424515 422.969574,239.584717 
	C425.026123,249.909164 420.466125,254.987717 410.991760,259.618378 
	C363.967224,282.602081 317.407501,306.537384 270.713898,330.196381 
	C267.720490,331.713074 265.183014,332.235992 261.893188,330.565765 
	C212.402573,305.439789 162.857101,280.421600 113.268333,255.489838 
	C110.028282,253.860825 109.323532,251.844070 108.826637,248.323807 
	C107.460045,238.641983 111.139992,233.861099 120.151772,229.814102 
	C144.988937,218.660263 169.238541,206.198105 194.078583,194.116196 
	C199.597000,196.581482 204.757385,199.184021 209.830551,202.451431 
	C182.081619,216.625565 154.419891,230.134842 126.046196,243.991837 
	C127.809441,245.123962 128.698624,245.799896 129.675781,246.306046 
	C139.412689,251.349640 149.227921,256.247040 158.875916,261.454529 
	C162.137589,263.214996 164.822144,263.315704 168.147659,261.583466 
	C180.674103,255.058563 193.362198,248.844986 205.942627,242.422470 
	C219.841339,235.326920 233.688293,228.130020 247.557800,220.977264 
	C253.120041,223.692337 258.682281,226.407410 264.327332,229.589798 
	C236.912476,243.972855 209.414795,257.888580 180.769104,272.385284 
	C191.552429,277.662567 201.156677,282.493408 210.916763,286.985657 
	C212.241638,287.595459 214.547409,286.909058 216.062042,286.150208 
	C259.908936,264.182434 303.714813,242.132797 347.513153,220.068192 
	C348.713287,219.463577 349.757141,218.548691 351.469330,217.367798 
	C349.198669,216.193314 347.756073,215.429855 346.298492,214.696106 
	C338.165833,210.601990 330.029541,206.515060 321.894501,202.425690 
M287.954224,267.406769 
	C268.907990,276.970459 249.861740,286.534149 229.812866,296.601318 
	C242.154358,302.879608 253.176086,308.572083 264.315002,314.025177 
	C265.470551,314.590851 267.521912,314.131989 268.822357,313.479950 
	C313.211395,291.223480 357.561279,268.888885 401.906860,246.545807 
	C403.120148,245.934525 404.224243,245.106583 406.135895,243.903412 
	C394.022919,238.029205 382.902557,232.506897 371.624268,227.328568 
	C370.191620,226.670776 367.715454,227.376602 366.088867,228.186234 
	C340.222717,241.061356 314.416260,254.056549 287.954224,267.406769 
z"/>
<path fill="#202222" opacity="1.000000" stroke="none" 
	d="
M192.743835,175.284424 
	C187.976990,172.921997 183.536942,170.745026 178.024506,168.042282 
	C180.290421,166.713730 181.693085,165.782257 183.186600,165.031479 
	C226.222260,143.397446 269.281647,121.810463 312.279663,100.101883 
	C315.364258,98.544533 317.846893,98.196938 321.057983,99.850861 
	C329.912476,104.411476 338.963715,108.589554 347.922424,112.949158 
	C349.058533,113.502022 350.106964,114.235069 351.889893,115.298492 
	C338.673492,121.994766 326.172943,128.366669 313.638641,134.671494 
	C281.583862,150.795288 249.490814,166.843338 217.486649,183.066849 
	C214.330261,184.666870 211.862747,184.741959 208.766739,183.055740 
	C203.669525,180.279556 198.316040,177.973907 192.743835,175.284424 
z"/>
<path fill="#202222" opacity="1.000000" stroke="none" 
	d="
M214.828583,131.865662 
	C197.566513,140.518219 180.675217,149.087036 163.716980,157.521225 
	C162.239044,158.256271 159.956528,158.865479 158.663986,158.246460 
	C147.939178,153.109909 137.359436,147.670471 125.905548,141.904633 
	C128.202209,140.556549 129.650131,139.570648 131.208557,138.811676 
	C174.978897,117.495209 218.743668,96.167038 262.596893,75.022285 
	C264.487518,74.110680 267.538727,74.188049 269.489349,75.058952 
	C279.037231,79.321869 288.395203,84.010284 299.219299,89.221909 
	C270.613922,103.696571 242.897736,117.721291 214.828583,131.865662 
z"/>
<path fill="#202022" opacity="1.000000" stroke="none" 
	d="
M321.497925,202.419708 
	C330.029541,206.515060 338.165833,210.601990 346.298492,214.696106 
	C347.756073,215.429855 349.198669,216.193314 351.469330,217.367798 
	C349.757141,218.548691 348.713287,219.463577 347.513153,220.068192 
	C303.714813,242.132797 259.908936,264.182434 216.062042,286.150208 
	C214.547409,286.909058 212.241638,287.595459 210.916763,286.985657 
	C201.156677,282.493408 191.552429,277.662567 180.769104,272.385284 
	C209.414795,257.888580 236.912476,243.972855 264.682434,229.804642 
	C273.729340,225.338379 282.512848,221.142990 291.276215,216.905975 
	C301.227356,212.094666 311.160431,207.246109 321.497925,202.419708 
z"/>
<path fill="#202022" opacity="1.000000" stroke="none" 
	d="
M247.348816,220.659180 
	C233.688293,228.130020 219.841339,235.326920 205.942627,242.422470 
	C193.362198,248.844986 180.674103,255.058563 168.147659,261.583466 
	C164.822144,263.315704 162.137589,263.214996 158.875916,261.454529 
	C149.227921,256.247040 139.412689,251.349640 129.675781,246.306046 
	C128.698624,245.799896 127.809441,245.123962 126.046196,243.991837 
	C154.419891,230.134842 182.081619,216.625565 209.897583,202.769867 
	C211.295410,202.734528 212.648270,202.828369 213.765671,203.390350 
	C224.912628,208.996399 236.020752,214.679626 247.348816,220.659180 
z"/>
<path fill="#202122" opacity="1.000000" stroke="none" 
	d="
M283.184296,167.852051 
	C287.020386,165.666794 290.776459,163.324524 294.705658,161.321976 
	C318.505219,149.192245 342.332001,137.115677 366.199310,125.120049 
	C367.699310,124.366135 369.985809,123.658249 371.285675,124.263062 
	C382.647827,129.549576 393.868439,135.140182 406.247101,141.185577 
	C403.757416,142.583755 402.300049,143.474777 400.781189,144.244354 
	C374.880615,157.367630 348.975311,170.481583 323.057465,183.570709 
	C321.744965,184.233566 320.309875,184.653702 318.344513,184.939911 
	C306.232849,179.079315 294.708588,173.465683 283.184296,167.852051 
z"/>
<path fill="#212324" opacity="1.000000" stroke="none" 
	d="
M301.495697,194.148010 
	C290.305054,199.958908 279.142120,205.824829 267.880554,211.494843 
	C266.765289,212.056351 264.830719,211.859680 263.643250,211.272736 
	C253.078262,206.050613 242.593094,200.666779 232.099716,195.300674 
	C231.698410,195.095459 231.452530,194.586288 230.503113,193.490036 
	C242.872940,187.486359 254.975998,181.612137 267.553528,176.049652 
	C269.586731,177.257553 271.118774,178.204376 272.708527,179.041580 
	C282.296906,184.090988 291.898529,189.115311 301.495697,194.148010 
z"/>
<path fill="#7662F5" opacity="1.000000" stroke="none" 
	d="
M301.826538,194.077301 
	C291.898529,189.115311 282.296906,184.090988 272.708527,179.041580 
	C271.118774,178.204376 269.586731,177.257553 267.930359,175.986328 
	C272.734894,173.016388 277.637085,170.421509 282.861755,167.839340 
	C294.708588,173.465683 306.232849,179.079315 317.976685,184.994415 
	C312.849945,188.199448 307.503662,191.103012 301.826538,194.077301 
z"/>
<path fill="#201F22" opacity="1.000000" stroke="none" 
	d="
M288.275208,267.215546 
	C314.416260,254.056549 340.222717,241.061356 366.088867,228.186234 
	C367.715454,227.376602 370.191620,226.670776 371.624268,227.328568 
	C382.902557,232.506897 394.022919,238.029205 406.135895,243.903412 
	C404.224243,245.106583 403.120148,245.934525 401.906860,246.545807 
	C357.561279,268.888885 313.211395,291.223480 268.822357,313.479950 
	C267.521912,314.131989 265.470551,314.590851 264.315002,314.025177 
	C253.176086,308.572083 242.154358,302.879608 229.812866,296.601318 
	C249.861740,286.534149 268.907990,276.970459 288.275208,267.215546 
z"/>
</svg>