<svg version="1.1" id="Layer_1" xmlns="http://www.w3.org/2000/svg" xmlns:xlink="http://www.w3.org/1999/xlink" x="0px" y="0px"
	 width="100%" viewBox="0 0 534 505" enable-background="new 0 0 534 505" xml:space="preserve">
<path fill="#FEFEFE" opacity="1.000000" stroke="none" 
	d="
M282.000000,1.000001 
	C366.315582,1.000000 450.631134,1.000000 534.973389,1.000000 
	C534.973389,169.280136 534.973389,337.560272 534.973389,505.920227 
	C357.090698,505.920227 179.181351,505.920227 1.135998,505.920227 
	C1.135998,337.666718 1.135998,169.333389 1.128791,1.000018 
	C83.104378,1.000000 165.087173,1.000000 247.357513,1.367851 
	C246.990646,1.844414 246.339462,1.980221 245.681396,2.057981 
	C186.125031,9.095505 139.111633,37.484379 105.134377,86.567192 
	C56.832829,156.342575 61.521812,253.245285 116.559082,317.653198 
	C159.855011,368.320679 215.299881,392.027313 282.124542,387.120026 
	C329.189880,383.663727 369.752838,364.765717 402.804688,331.369659 
	C447.267853,286.443512 466.026764,231.961502 458.119232,169.074295 
	C447.835022,87.285431 385.274109,20.884350 304.264008,4.880832 
	C296.875488,3.421229 289.422852,2.285911 282.000000,1.000001 
M175.174042,449.706482 
	C162.901749,464.698334 166.065964,486.411957 182.374603,494.707550 
	C195.052612,501.156372 208.388336,500.712769 221.437393,495.079987 
	C227.125961,492.624451 230.542465,488.696930 229.518906,481.885742 
	C229.078323,478.953918 229.418259,475.900604 229.449539,472.902985 
	C229.494980,468.548065 227.363754,466.509735 223.017029,466.540741 
	C215.355942,466.595428 207.693787,466.603577 200.032928,466.534760 
	C196.368729,466.501862 193.444962,467.859406 193.447800,471.686554 
	C193.450851,475.788818 196.491379,477.113922 200.369125,477.038086 
	C206.490067,476.918365 212.615097,477.006226 218.699219,477.006226 
	C219.295074,484.959686 218.704834,486.716888 211.530701,487.459412 
	C204.406387,488.196747 196.861176,488.119537 189.923508,486.540833 
	C182.187881,484.780518 178.550201,478.212891 178.221909,470.366486 
	C177.905151,462.795990 180.690994,456.288940 187.864227,453.213257 
	C197.737610,448.979828 207.943207,448.870117 217.689224,453.983643 
	C221.110275,455.778534 224.303925,457.239532 226.674377,453.128784 
	C228.847839,449.359650 226.321899,446.938324 223.314896,444.962585 
	C212.746658,438.018829 186.471771,437.110840 175.174042,449.706482 
M342.391113,474.103546 
	C350.532257,481.711884 358.575439,489.430664 366.908478,496.822662 
	C368.340820,498.093292 371.443024,498.930328 372.981323,498.229095 
	C374.549011,497.514435 375.911621,494.696350 376.016937,492.727203 
	C376.381012,485.921600 376.158295,479.084564 376.158264,472.259491 
	C376.158264,463.603302 376.117828,454.946869 376.176392,446.291077 
	C376.200256,442.766632 374.729736,440.198151 371.170166,440.122467 
	C367.303986,440.040283 365.724976,442.712891 365.833344,446.445557 
	C365.886475,448.275116 365.841736,450.107513 365.841705,451.938629 
	C365.841614,461.484161 365.841675,471.029694 365.841675,481.444916 
	C363.587280,479.440765 362.091522,478.167236 360.657654,476.827423 
	C348.384796,465.359772 336.196106,453.799744 323.764069,442.507568 
	C322.244141,441.127075 318.969818,440.114960 317.356262,440.834137 
	C315.695892,441.574127 314.176483,444.627258 314.140167,446.695343 
	C313.874268,461.839020 314.029449,476.989624 313.974091,492.137726 
	C313.959900,496.016998 315.314636,498.943207 319.479095,498.887177 
	C323.501617,498.833069 324.472229,495.766022 324.455139,492.209290 
	C324.407990,482.388092 324.425446,472.566467 324.456329,462.745117 
	C324.460602,461.381683 324.684723,460.018921 324.885071,457.787384 
	C331.002441,463.506989 336.424957,468.576935 342.391113,474.103546 
M37.220524,491.210938 
	C46.962887,503.492981 63.621655,500.075989 68.848518,489.779877 
	C75.906540,475.876617 82.178406,461.562927 88.348839,447.236389 
	C89.035027,445.643219 87.426399,441.649506 85.857712,440.892914 
	C84.275826,440.129974 81.346230,441.854370 79.160751,442.832367 
	C78.483040,443.135620 78.316666,444.565094 77.900444,445.471710 
	C72.220123,457.844910 66.782959,470.340759 60.661240,482.491669 
	C59.328697,485.136627 55.781593,487.590576 52.828465,488.263733 
	C49.012218,489.133667 46.016403,486.343048 44.415657,482.613312 
	C43.957420,481.545593 43.466015,480.492004 42.982178,479.435455 
	C37.590485,467.661102 32.201721,455.885437 26.801468,444.115021 
	C25.406031,441.073517 23.221233,438.988281 19.746622,440.378815 
	C16.520369,441.669952 15.320874,444.308868 16.895113,447.704651 
	C23.526438,462.009033 30.179443,476.303436 37.220524,491.210938 
M512.604980,498.122437 
	C515.605347,496.029266 515.737244,493.314209 514.324646,490.252075 
	C508.213623,477.004303 502.292572,463.664398 495.922028,450.542664 
	C492.612915,443.726715 486.563721,440.126404 479.010803,440.088623 
	C471.470398,440.050934 465.317688,443.530212 461.993683,450.338104 
	C455.521851,463.592804 449.523499,477.079468 443.389709,490.497833 
	C442.003174,493.531097 442.158142,496.473053 445.429443,498.210510 
	C449.498871,500.371887 451.566528,497.829437 453.106659,494.482635 
	C458.649384,482.437775 464.315613,470.447296 469.663239,458.316437 
	C471.552673,454.030334 473.902710,450.585999 478.895233,450.557465 
	C483.907410,450.528809 486.291412,453.988159 488.165802,458.260986 
	C493.428040,470.256683 498.932373,482.146606 504.389893,494.055939 
	C505.839539,497.219299 507.599731,500.072296 512.604980,498.122437 
M440.250671,450.430115 
	C443.888794,450.486694 447.195190,449.845459 447.125275,445.260010 
	C447.058319,440.869049 443.978943,439.972687 440.240814,439.982208 
	C424.265289,440.022888 408.289490,440.034637 392.314087,439.973663 
	C388.536896,439.959259 385.375854,440.996948 385.269470,445.192261 
	C385.159241,449.541199 388.424316,450.482269 392.158325,450.445953 
	C398.282898,450.386353 404.408478,450.429840 410.999451,450.429840 
	C410.999451,453.940277 410.999207,457.054779 410.999512,460.169312 
	C411.000580,471.152527 410.973969,482.135895 411.019073,493.118927 
	C411.033600,496.661560 412.911743,498.940979 416.464630,498.903564 
	C419.855011,498.867920 421.373474,496.505066 421.409943,493.228210 
	C421.448853,489.734009 421.429169,486.239136 421.429718,482.744537 
	C421.431305,472.143921 421.430267,461.543304 421.430267,450.430267 
	C427.743744,450.430267 433.522583,450.430267 440.250671,450.430115 
M301.792480,443.916016 
	C299.700226,442.610809 297.628754,440.213959 295.512451,440.173676 
	C279.049530,439.860046 262.577942,439.990540 246.109039,440.007904 
	C242.447723,440.011780 239.835587,441.554535 239.922363,445.522186 
	C240.005463,449.320984 242.685150,450.439453 246.089325,450.436218 
	C262.558228,450.420624 279.027191,450.415619 295.496063,450.437622 
	C299.403381,450.442871 301.917053,448.993713 301.792480,443.916016 
M158.643753,447.083984 
	C158.865997,441.898163 157.315308,440.044922 152.254120,440.024445 
	C135.954575,439.958496 119.654587,440.003082 103.354767,439.997498 
	C99.747246,439.996277 96.985001,441.286011 96.932365,445.277252 
	C96.877937,449.405273 99.755791,450.444824 103.339447,450.439819 
	C119.639236,450.416931 135.940216,450.520386 152.237396,450.313446 
	C154.242935,450.287994 156.228287,448.673584 158.643753,447.083984 
M151.161163,463.999451 
	C135.372040,463.999451 119.582848,464.026154 103.793861,463.979889 
	C100.044914,463.968933 96.931465,464.885529 96.940254,469.259125 
	C96.949173,473.696472 100.194839,474.450195 103.872711,474.443176 
	C119.827980,474.412628 135.783447,474.398590 151.738586,474.453491 
	C155.435654,474.466217 158.769547,473.651917 158.865402,469.401917 
	C158.959030,465.250244 155.911652,463.834686 151.161163,463.999451 
M258.502960,474.430298 
	C270.959747,474.428680 283.416565,474.431396 295.873352,474.422729 
	C299.340607,474.420288 301.886230,472.887726 301.884308,469.273346 
	C301.882416,465.718719 299.436279,464.012390 295.940613,464.008667 
	C279.165466,463.990845 262.390259,463.984192 245.615173,464.015869 
	C242.380402,464.022003 240.078537,465.488586 239.925552,468.938690 
	C239.759964,472.673248 242.055725,474.323547 245.547241,474.402252 
	C249.531433,474.492065 253.519089,474.427673 258.502960,474.430298 
M154.026337,488.632111 
	C137.067673,488.611633 120.108994,488.600464 103.150368,488.562836 
	C99.764435,488.555298 97.058311,489.610565 96.923920,493.413422 
	C96.783829,497.377686 99.321373,498.989624 103.017395,498.993134 
	C119.644089,499.008942 136.273727,499.144104 152.893738,498.810364 
	C154.911469,498.769867 158.021057,496.461884 158.513168,494.635773 
	C158.922302,493.117523 156.226120,490.762512 154.026337,488.632111 
M296.121368,488.576019 
	C279.496613,488.574188 262.871857,488.582245 246.247116,488.562836 
	C242.638565,488.558655 239.856186,489.689728 239.926407,493.810760 
	C239.989517,497.515808 242.475342,498.987030 245.918457,498.991089 
	C262.543182,499.010590 279.167938,498.991089 295.792694,499.005890 
	C299.055603,499.008789 301.441498,497.572754 301.865234,494.336090 
	C302.298279,491.028290 300.370941,489.069611 296.121368,488.576019 
M482.416809,488.248352 
	C488.359406,484.671204 490.130951,479.046112 486.820618,474.264923 
	C484.063660,470.283020 479.242157,468.932068 475.017487,470.957825 
	C470.790955,472.984436 468.713226,477.597656 469.970032,482.164795 
	C471.295013,486.979889 475.704132,489.382202 482.416809,488.248352 
z"/>
<path fill="#1F1F1F" opacity="1.000000" stroke="none" 
	d="
M281.531342,1.000001 
	C289.422852,2.285911 296.875488,3.421229 304.264008,4.880832 
	C385.274109,20.884350 447.835022,87.285431 458.119232,169.074295 
	C466.026764,231.961502 447.267853,286.443512 402.804688,331.369659 
	C369.752838,364.765717 329.189880,383.663727 282.124542,387.120026 
	C215.299881,392.027313 159.855011,368.320679 116.559082,317.653198 
	C61.521812,253.245285 56.832829,156.342575 105.134377,86.567192 
	C139.111633,37.484379 186.125031,9.095505 245.681396,2.057981 
	C246.339462,1.980221 246.990646,1.844414 247.822525,1.367851 
	C259.020905,1.000000 270.041779,1.000000 281.531342,1.000001 
M338.046814,193.386551 
	C363.821320,180.288528 389.468140,166.927933 415.465088,154.287476 
	C421.540314,151.333527 423.187958,148.004929 423.232483,141.574188 
	C423.278839,134.880142 421.311859,131.628662 415.098633,128.656570 
	C366.847809,105.576019 318.815826,82.037254 270.773041,58.524010 
	C267.260071,56.804684 264.445038,56.960884 260.980957,58.658115 
	C214.437317,81.462234 167.997299,104.492439 121.094719,126.537109 
	C111.504272,131.044724 107.187576,135.983246 108.893913,146.375565 
	C109.337471,149.077057 109.757507,150.803894 112.367828,152.097961 
	C126.808289,159.256958 141.183716,166.548462 155.536697,173.882095 
	C168.534210,180.523163 181.474380,187.276474 193.728516,194.249329 
	C168.941833,206.335342 144.324326,218.789948 119.268951,230.290558 
	C111.401848,233.901627 107.905388,237.873871 108.720459,246.827469 
	C109.186310,251.944778 110.824310,254.254639 115.065712,256.381683 
	C163.786926,280.815308 212.452545,305.360382 261.050049,330.039062 
	C264.755981,331.921021 267.516357,331.756989 271.148590,329.911896 
	C317.819458,306.203888 364.427307,282.360596 411.442932,259.352234 
	C420.532135,254.904205 425.047028,250.060684 422.971924,240.061905 
	C422.905640,239.742538 423.085846,239.329117 422.944000,239.075256 
	C422.009399,237.402420 421.422943,234.941956 419.985046,234.231155 
	C392.584839,220.686920 365.082153,207.349960 338.046814,193.386551 
z"/>
<path fill="#040404" opacity="1.000000" stroke="none" 
	d="
M175.426971,449.452026 
	C186.471771,437.110840 212.746658,438.018829 223.314896,444.962585 
	C226.321899,446.938324 228.847839,449.359650 226.674377,453.128784 
	C224.303925,457.239532 221.110275,455.778534 217.689224,453.983643 
	C207.943207,448.870117 197.737610,448.979828 187.864227,453.213257 
	C180.690994,456.288940 177.905151,462.795990 178.221909,470.366486 
	C178.550201,478.212891 182.187881,484.780518 189.923508,486.540833 
	C196.861176,488.119537 204.406387,488.196747 211.530701,487.459412 
	C218.704834,486.716888 219.295074,484.959686 218.699219,477.006226 
	C212.615097,477.006226 206.490067,476.918365 200.369125,477.038086 
	C196.491379,477.113922 193.450851,475.788818 193.447800,471.686554 
	C193.444962,467.859406 196.368729,466.501862 200.032928,466.534760 
	C207.693787,466.603577 215.355942,466.595428 223.017029,466.540741 
	C227.363754,466.509735 229.494980,468.548065 229.449539,472.902985 
	C229.418259,475.900604 229.078323,478.953918 229.518906,481.885742 
	C230.542465,488.696930 227.125961,492.624451 221.437393,495.079987 
	C208.388336,500.712769 195.052612,501.156372 182.374603,494.707550 
	C166.065964,486.411957 162.901749,464.698334 175.426971,449.452026 
z"/>
<path fill="#030303" opacity="1.000000" stroke="none" 
	d="
M342.119324,473.875183 
	C336.424957,468.576935 331.002441,463.506989 324.885071,457.787384 
	C324.684723,460.018921 324.460602,461.381683 324.456329,462.745117 
	C324.425446,472.566467 324.407990,482.388092 324.455139,492.209290 
	C324.472229,495.766022 323.501617,498.833069 319.479095,498.887177 
	C315.314636,498.943207 313.959900,496.016998 313.974091,492.137726 
	C314.029449,476.989624 313.874268,461.839020 314.140167,446.695343 
	C314.176483,444.627258 315.695892,441.574127 317.356262,440.834137 
	C318.969818,440.114960 322.244141,441.127075 323.764069,442.507568 
	C336.196106,453.799744 348.384796,465.359772 360.657654,476.827423 
	C362.091522,478.167236 363.587280,479.440765 365.841675,481.444916 
	C365.841675,471.029694 365.841614,461.484161 365.841705,451.938629 
	C365.841736,450.107513 365.886475,448.275116 365.833344,446.445557 
	C365.724976,442.712891 367.303986,440.040283 371.170166,440.122467 
	C374.729736,440.198151 376.200256,442.766632 376.176392,446.291077 
	C376.117828,454.946869 376.158264,463.603302 376.158264,472.259491 
	C376.158295,479.084564 376.381012,485.921600 376.016937,492.727203 
	C375.911621,494.696350 374.549011,497.514435 372.981323,498.229095 
	C371.443024,498.930328 368.340820,498.093292 366.908478,496.822662 
	C358.575439,489.430664 350.532257,481.711884 342.119324,473.875183 
z"/>
<path fill="#060606" opacity="1.000000" stroke="none" 
	d="
M37.022522,490.906189 
	C30.179443,476.303436 23.526438,462.009033 16.895113,447.704651 
	C15.320874,444.308868 16.520369,441.669952 19.746622,440.378815 
	C23.221233,438.988281 25.406031,441.073517 26.801468,444.115021 
	C32.201721,455.885437 37.590485,467.661102 42.982178,479.435455 
	C43.466015,480.492004 43.957420,481.545593 44.415657,482.613312 
	C46.016403,486.343048 49.012218,489.133667 52.828465,488.263733 
	C55.781593,487.590576 59.328697,485.136627 60.661240,482.491669 
	C66.782959,470.340759 72.220123,457.844910 77.900444,445.471710 
	C78.316666,444.565094 78.483040,443.135620 79.160751,442.832367 
	C81.346230,441.854370 84.275826,440.129974 85.857712,440.892914 
	C87.426399,441.649506 89.035027,445.643219 88.348839,447.236389 
	C82.178406,461.562927 75.906540,475.876617 68.848518,489.779877 
	C63.621655,500.075989 46.962887,503.492981 37.022522,490.906189 
z"/>
<path fill="#050505" opacity="1.000000" stroke="none" 
	d="
M512.256531,498.305481 
	C507.599731,500.072296 505.839539,497.219299 504.389893,494.055939 
	C498.932373,482.146606 493.428040,470.256683 488.165802,458.260986 
	C486.291412,453.988159 483.907410,450.528809 478.895233,450.557465 
	C473.902710,450.585999 471.552673,454.030334 469.663239,458.316437 
	C464.315613,470.447296 458.649384,482.437775 453.106659,494.482635 
	C451.566528,497.829437 449.498871,500.371887 445.429443,498.210510 
	C442.158142,496.473053 442.003174,493.531097 443.389709,490.497833 
	C449.523499,477.079468 455.521851,463.592804 461.993683,450.338104 
	C465.317688,443.530212 471.470398,440.050934 479.010803,440.088623 
	C486.563721,440.126404 492.612915,443.726715 495.922028,450.542664 
	C502.292572,463.664398 508.213623,477.004303 514.324646,490.252075 
	C515.737244,493.314209 515.605347,496.029266 512.256531,498.305481 
z"/>
<path fill="#010101" opacity="1.000000" stroke="none" 
	d="
M439.776062,450.430176 
	C433.522583,450.430267 427.743744,450.430267 421.430267,450.430267 
	C421.430267,461.543304 421.431305,472.143921 421.429718,482.744537 
	C421.429169,486.239136 421.448853,489.734009 421.409943,493.228210 
	C421.373474,496.505066 419.855011,498.867920 416.464630,498.903564 
	C412.911743,498.940979 411.033600,496.661560 411.019073,493.118927 
	C410.973969,482.135895 411.000580,471.152527 410.999512,460.169312 
	C410.999207,457.054779 410.999451,453.940277 410.999451,450.429840 
	C404.408478,450.429840 398.282898,450.386353 392.158325,450.445953 
	C388.424316,450.482269 385.159241,449.541199 385.269470,445.192261 
	C385.375854,440.996948 388.536896,439.959259 392.314087,439.973663 
	C408.289490,440.034637 424.265289,440.022888 440.240814,439.982208 
	C443.978943,439.972687 447.058319,440.869049 447.125275,445.260010 
	C447.195190,449.845459 443.888794,450.486694 439.776062,450.430176 
z"/>
<path fill="#010101" opacity="1.000000" stroke="none" 
	d="
M301.876495,444.308716 
	C301.917053,448.993713 299.403381,450.442871 295.496063,450.437622 
	C279.027191,450.415619 262.558228,450.420624 246.089325,450.436218 
	C242.685150,450.439453 240.005463,449.320984 239.922363,445.522186 
	C239.835587,441.554535 242.447723,440.011780 246.109039,440.007904 
	C262.577942,439.990540 279.049530,439.860046 295.512451,440.173676 
	C297.628754,440.213959 299.700226,442.610809 301.876495,444.308716 
z"/>
<path fill="#010101" opacity="1.000000" stroke="none" 
	d="
M158.433365,447.439758 
	C156.228287,448.673584 154.242935,450.287994 152.237396,450.313446 
	C135.940216,450.520386 119.639236,450.416931 103.339447,450.439819 
	C99.755791,450.444824 96.877937,449.405273 96.932365,445.277252 
	C96.985001,441.286011 99.747246,439.996277 103.354767,439.997498 
	C119.654587,440.003082 135.954575,439.958496 152.254120,440.024445 
	C157.315308,440.044922 158.865997,441.898163 158.433365,447.439758 
z"/>
<path fill="#010101" opacity="1.000000" stroke="none" 
	d="
M151.615265,463.999451 
	C155.911652,463.834686 158.959030,465.250244 158.865402,469.401917 
	C158.769547,473.651917 155.435654,474.466217 151.738586,474.453491 
	C135.783447,474.398590 119.827980,474.412628 103.872711,474.443176 
	C100.194839,474.450195 96.949173,473.696472 96.940254,469.259125 
	C96.931465,464.885529 100.044914,463.968933 103.793861,463.979889 
	C119.582848,464.026154 135.372040,463.999451 151.615265,463.999451 
z"/>
<path fill="#010101" opacity="1.000000" stroke="none" 
	d="
M258.004089,474.430298 
	C253.519089,474.427673 249.531433,474.492065 245.547241,474.402252 
	C242.055725,474.323547 239.759964,472.673248 239.925552,468.938690 
	C240.078537,465.488586 242.380402,464.022003 245.615173,464.015869 
	C262.390259,463.984192 279.165466,463.990845 295.940613,464.008667 
	C299.436279,464.012390 301.882416,465.718719 301.884308,469.273346 
	C301.886230,472.887726 299.340607,474.420288 295.873352,474.422729 
	C283.416565,474.431396 270.959747,474.428680 258.004089,474.430298 
z"/>
<path fill="#010101" opacity="1.000000" stroke="none" 
	d="
M154.465881,488.705139 
	C156.226120,490.762512 158.922302,493.117523 158.513168,494.635773 
	C158.021057,496.461884 154.911469,498.769867 152.893738,498.810364 
	C136.273727,499.144104 119.644089,499.008942 103.017395,498.993134 
	C99.321373,498.989624 96.783829,497.377686 96.923920,493.413422 
	C97.058311,489.610565 99.764435,488.555298 103.150368,488.562836 
	C120.108994,488.600464 137.067673,488.611633 154.465881,488.705139 
z"/>
<path fill="#010101" opacity="1.000000" stroke="none" 
	d="
M296.573792,488.604065 
	C300.370941,489.069611 302.298279,491.028290 301.865234,494.336090 
	C301.441498,497.572754 299.055603,499.008789 295.792694,499.005890 
	C279.167938,498.991089 262.543182,499.010590 245.918457,498.991089 
	C242.475342,498.987030 239.989517,497.515808 239.926407,493.810760 
	C239.856186,489.689728 242.638565,488.558655 246.247116,488.562836 
	C262.871857,488.582245 279.496613,488.574188 296.573792,488.604065 
z"/>
<path fill="#050505" opacity="1.000000" stroke="none" 
	d="
M482.058014,488.401917 
	C475.704132,489.382202 471.295013,486.979889 469.970032,482.164795 
	C468.713226,477.597656 470.790955,472.984436 475.017487,470.957825 
	C479.242157,468.932068 484.063660,470.283020 486.820618,474.264923 
	C490.130951,479.046112 488.359406,484.671204 482.058014,488.401917 
z"/>
<path fill="#72DAE9" opacity="1.000000" stroke="none" 
	d="
M194.439819,193.980301 
	C181.474380,187.276474 168.534210,180.523163 155.536697,173.882095 
	C141.183716,166.548462 126.808289,159.256958 112.367828,152.097961 
	C109.757507,150.803894 109.337471,149.077057 108.893913,146.375565 
	C107.187576,135.983246 111.504272,131.044724 121.094719,126.537109 
	C167.997299,104.492439 214.437317,81.462234 260.980957,58.658115 
	C264.445038,56.960884 267.260071,56.804684 270.773041,58.524010 
	C318.815826,82.037254 366.847809,105.576019 415.098633,128.656570 
	C421.311859,131.628662 423.278839,134.880142 423.232483,141.574188 
	C423.187958,148.004929 421.540314,151.333527 415.465088,154.287476 
	C389.468140,166.927933 363.821320,180.288528 337.491577,193.717743 
	C331.923248,196.842133 326.910126,199.635330 321.500092,202.423920 
	C311.159454,207.251892 301.223846,212.101212 291.269653,216.912018 
	C282.505829,221.147537 273.721191,225.340027 264.590576,229.337662 
	C258.675507,226.407898 253.115631,223.692001 247.347198,220.659241 
	C236.033875,214.689133 224.940170,209.013916 213.807480,203.416153 
	C212.675323,202.846878 211.308914,202.743500 209.984955,202.105133 
	C204.759079,199.184357 199.599442,196.582336 194.439819,193.980301 
M267.082031,175.741516 
	C254.977417,181.613953 242.872803,187.486374 230.501526,193.488190 
	C231.449677,194.584824 231.695251,195.094925 232.096710,195.300186 
	C242.590714,200.666275 253.076553,206.049973 263.642181,211.272034 
	C264.829834,211.859039 266.764374,212.056900 267.879364,211.495453 
	C279.141205,205.824661 290.304382,199.957901 302.156738,194.005615 
	C307.501312,191.101837 312.845856,188.198059 318.926819,185.185684 
	C320.305023,184.653214 321.740540,184.234268 323.052948,183.571487 
	C348.969818,170.482941 374.874115,157.369385 400.773712,144.246658 
	C402.293701,143.476501 403.752655,142.585907 405.956970,141.349060 
	C403.691803,140.037582 402.347900,139.142548 400.908264,138.444992 
	C391.802887,134.033157 382.760773,129.471619 373.494446,125.425156 
	C371.310059,124.471260 367.905823,124.409637 365.808777,125.446434 
	C340.673920,137.873047 315.669464,150.563980 290.664246,163.251480 
	C288.064667,164.570496 285.678741,166.310654 282.547791,167.829300 
	C277.643982,170.424911 272.740143,173.020523 267.082031,175.741516 
M254.626678,129.087204 
	C229.377533,141.818161 204.128387,154.549133 178.011826,167.717468 
	C180.426529,169.103287 181.769577,169.984222 183.202957,170.678680 
	C192.019028,174.950027 200.916229,179.059662 209.649155,183.493515 
	C212.359726,184.869690 214.418701,184.596176 217.003571,183.288528 
	C250.952682,166.113983 284.954437,149.043594 318.940308,131.941650 
	C329.696777,126.528885 340.445190,121.100151 352.338104,115.103516 
	C350.954254,114.381126 350.365967,114.052917 349.760254,113.760933 
	C339.588470,108.857956 329.470215,103.836311 319.183289,99.187950 
	C317.572235,98.459991 314.910553,98.864426 313.211395,99.706848 
	C293.860840,109.300575 274.602966,119.081207 254.626678,129.087204 
M218.048843,96.502632 
	C187.556808,111.391693 157.064789,126.280746 125.443375,141.721283 
	C136.691513,147.336716 146.664413,152.168060 156.476395,157.306671 
	C159.304199,158.787628 161.445831,158.824142 164.325928,157.363098 
	C207.897476,135.259293 251.537491,113.290504 295.149445,91.266258 
	C296.214966,90.728157 297.142761,89.917290 298.543488,88.952011 
	C288.179108,83.906738 278.563385,79.041222 268.747772,74.619431 
	C266.998322,73.831337 264.144104,74.297165 262.267944,75.179268 
	C247.686020,82.035126 233.218811,89.134979 218.048843,96.502632 
z"/>
<path fill="#7761F8" opacity="1.000000" stroke="none" 
	d="
M247.555756,220.976105 
	C253.115631,223.692001 258.675507,226.407898 264.318756,229.589661 
	C236.906326,243.973236 209.410538,257.890930 180.770782,272.387695 
	C191.550400,277.662079 201.155304,282.492340 210.916031,286.983887 
	C212.242142,287.594055 214.549072,286.909546 216.064178,286.150452 
	C259.906372,264.185455 303.707520,242.138489 347.501099,220.076553 
	C348.703369,219.470886 349.749542,218.555450 351.468475,217.371124 
	C349.205963,216.199005 347.761658,215.432343 346.301392,214.697296 
	C338.168732,210.603470 330.032227,206.517303 321.897034,202.428528 
	C326.910126,199.635330 331.923248,196.842133 337.268555,194.009460 
	C365.082153,207.349960 392.584839,220.686920 419.985046,234.231155 
	C421.422943,234.941956 422.009399,237.402420 422.944000,239.075256 
	C423.085846,239.329117 422.905640,239.742538 422.971924,240.061905 
	C425.047028,250.060684 420.532135,254.904205 411.442932,259.352234 
	C364.427307,282.360596 317.819458,306.203888 271.148590,329.911896 
	C267.516357,331.756989 264.755981,331.921021 261.050049,330.039062 
	C212.452545,305.360382 163.786926,280.815308 115.065712,256.381683 
	C110.824310,254.254639 109.186310,251.944778 108.720459,246.827469 
	C107.905388,237.873871 111.401848,233.901627 119.268951,230.290558 
	C144.324326,218.789948 168.941833,206.335342 194.084167,194.114807 
	C199.599442,196.582336 204.759079,199.184357 209.832703,202.452713 
	C182.081894,216.625656 154.417114,230.132263 126.034340,243.989395 
	C127.811974,245.127487 128.703583,245.801865 129.681992,246.308701 
	C139.419571,251.352814 149.235748,256.250244 158.883575,261.459778 
	C162.149734,263.223419 164.831329,263.296997 168.157166,261.577087 
	C182.622711,254.096329 197.238724,246.907257 211.748215,239.510498 
	C223.721832,233.406464 235.622681,227.159653 247.555756,220.976105 
M249.318161,286.805939 
	C243.117264,289.936157 236.916382,293.066376 229.823730,296.646759 
	C241.928314,302.781433 252.543793,308.266144 263.288391,313.485046 
	C264.765442,314.202454 267.204376,314.241547 268.658539,313.514984 
	C313.528473,291.096466 358.332489,268.546021 403.132080,245.986938 
	C403.931213,245.584534 404.552399,244.828705 405.792328,243.788269 
	C394.108734,238.079163 383.019958,232.554657 371.798004,227.315308 
	C370.439880,226.681213 368.124969,227.110672 366.654175,227.847244 
	C327.738190,247.336426 288.874939,266.930939 249.318161,286.805939 
z"/>
<path fill="#202222" opacity="1.000000" stroke="none" 
	d="
M254.973511,128.949554 
	C274.602966,119.081207 293.860840,109.300575 313.211395,99.706848 
	C314.910553,98.864426 317.572235,98.459991 319.183289,99.187950 
	C329.470215,103.836311 339.588470,108.857956 349.760254,113.760933 
	C350.365967,114.052917 350.954254,114.381126 352.338104,115.103516 
	C340.445190,121.100151 329.696777,126.528885 318.940308,131.941650 
	C284.954437,149.043594 250.952682,166.113983 217.003571,183.288528 
	C214.418701,184.596176 212.359726,184.869690 209.649155,183.493515 
	C200.916229,179.059662 192.019028,174.950027 183.202957,170.678680 
	C181.769577,169.984222 180.426529,169.103287 178.011826,167.717468 
	C204.128387,154.549133 229.377533,141.818161 254.973511,128.949554 
z"/>
<path fill="#202222" opacity="1.000000" stroke="none" 
	d="
M218.382477,96.331009 
	C233.218811,89.134979 247.686020,82.035126 262.267944,75.179268 
	C264.144104,74.297165 266.998322,73.831337 268.747772,74.619431 
	C278.563385,79.041222 288.179108,83.906738 298.543488,88.952011 
	C297.142761,89.917290 296.214966,90.728157 295.149445,91.266258 
	C251.537491,113.290504 207.897476,135.259293 164.325928,157.363098 
	C161.445831,158.824142 159.304199,158.787628 156.476395,157.306671 
	C146.664413,152.168060 136.691513,147.336716 125.443375,141.721283 
	C157.064789,126.280746 187.556808,111.391693 218.382477,96.331009 
z"/>
<path fill="#202022" opacity="1.000000" stroke="none" 
	d="
M321.500092,202.423920 
	C330.032227,206.517303 338.168732,210.603470 346.301392,214.697296 
	C347.761658,215.432343 349.205963,216.199005 351.468475,217.371124 
	C349.749542,218.555450 348.703369,219.470886 347.501099,220.076553 
	C303.707520,242.138489 259.906372,264.185455 216.064178,286.150452 
	C214.549072,286.909546 212.242142,287.594055 210.916031,286.983887 
	C201.155304,282.492340 191.550400,277.662079 180.770782,272.387695 
	C209.410538,257.890930 236.906326,243.973236 264.673950,229.803528 
	C273.721191,225.340027 282.505829,221.147537 291.269653,216.912018 
	C301.223846,212.101212 311.159454,207.251892 321.500092,202.423920 
z"/>
<path fill="#202022" opacity="1.000000" stroke="none" 
	d="
M247.347198,220.659241 
	C235.622681,227.159653 223.721832,233.406464 211.748215,239.510498 
	C197.238724,246.907257 182.622711,254.096329 168.157166,261.577087 
	C164.831329,263.296997 162.149734,263.223419 158.883575,261.459778 
	C149.235748,256.250244 139.419571,251.352814 129.681992,246.308701 
	C128.703583,245.801865 127.811974,245.127487 126.034340,243.989395 
	C154.417114,230.132263 182.081894,216.625656 209.898941,202.771484 
	C211.308914,202.743500 212.675323,202.846878 213.807480,203.416153 
	C224.940170,209.013916 236.033875,214.689133 247.347198,220.659241 
z"/>
<path fill="#202122" opacity="1.000000" stroke="none" 
	d="
M283.193695,167.855408 
	C285.678741,166.310654 288.064667,164.570496 290.664246,163.251480 
	C315.669464,150.563980 340.673920,137.873047 365.808777,125.446434 
	C367.905823,124.409637 371.310059,124.471260 373.494446,125.425156 
	C382.760773,129.471619 391.802887,134.033157 400.908264,138.444992 
	C402.347900,139.142548 403.691803,140.037582 405.956970,141.349060 
	C403.752655,142.585907 402.293701,143.476501 400.773712,144.246658 
	C374.874115,157.369385 348.969818,170.482941 323.052948,183.571487 
	C321.740540,184.234268 320.305023,184.653214 318.341278,184.937469 
	C306.235046,179.077972 294.714386,173.466690 283.193695,167.855408 
z"/>
<path fill="#212324" opacity="1.000000" stroke="none" 
	d="
M301.495239,194.146179 
	C290.304382,199.957901 279.141205,205.824661 267.879364,211.495453 
	C266.764374,212.056900 264.829834,211.859039 263.642181,211.272034 
	C253.076553,206.049973 242.590714,200.666275 232.096710,195.300186 
	C231.695251,195.094925 231.449677,194.584824 230.501526,193.488190 
	C242.872803,187.486374 254.977417,181.613953 267.557098,176.054825 
	C269.592468,177.262512 271.126984,178.205841 272.717255,179.043259 
	C282.302826,184.091049 291.901184,189.114548 301.495239,194.146179 
z"/>
<path fill="#7662F5" opacity="1.000000" stroke="none" 
	d="
M301.825989,194.075897 
	C291.901184,189.114548 282.302826,184.091049 272.717255,179.043259 
	C271.126984,178.205841 269.592468,177.262512 267.934265,175.992126 
	C272.740143,173.020523 277.643982,170.424911 282.870728,167.842346 
	C294.714386,173.466690 306.235046,179.077972 317.973083,184.991760 
	C312.845856,188.198059 307.501312,191.101837 301.825989,194.075897 
z"/>
<path fill="#201F22" opacity="1.000000" stroke="none" 
	d="
M249.660416,286.656708 
	C288.874939,266.930939 327.738190,247.336426 366.654175,227.847244 
	C368.124969,227.110672 370.439880,226.681213 371.798004,227.315308 
	C383.019958,232.554657 394.108734,238.079163 405.792328,243.788269 
	C404.552399,244.828705 403.931213,245.584534 403.132080,245.986938 
	C358.332489,268.546021 313.528473,291.096466 268.658539,313.514984 
	C267.204376,314.241547 264.765442,314.202454 263.288391,313.485046 
	C252.543793,308.266144 241.928314,302.781433 229.823730,296.646759 
	C236.916382,293.066376 243.117264,289.936157 249.660416,286.656708 
z"/>
</svg>